<?xml version="1.0" encoding="UTF-8" standalone="no"?>
<!-- Created with Inkscape (http://www.inkscape.org/) -->

<svg
   width="192"
   height="192"
   viewBox="0 0 50.8 50.8"
   version="1.1"
   id="svg5"
   inkscape:version="1.1 (c68e22c387, 2021-05-23)"
   sodipodi:docname="logo.svg"
   xmlns:inkscape="http://www.inkscape.org/namespaces/inkscape"
   xmlns:sodipodi="http://sodipodi.sourceforge.net/DTD/sodipodi-0.dtd"
   xmlns="http://www.w3.org/2000/svg"
   xmlns:svg="http://www.w3.org/2000/svg">
  <sodipodi:namedview
     id="namedview7"
     pagecolor="#ffffff"
     bordercolor="#cccccc"
     borderopacity="1"
     inkscape:pageshadow="0"
     inkscape:pageopacity="0"
     inkscape:pagecheckerboard="false"
     inkscape:document-units="mm"
     showgrid="true"
     units="px"
     inkscape:zoom="7.9867626"
     inkscape:cx="86.267745"
     inkscape:cy="47.390917"
     inkscape:window-width="1600"
     inkscape:window-height="829"
     inkscape:window-x="0"
     inkscape:window-y="0"
     inkscape:window-maximized="1"
     inkscape:current-layer="layer1"
     objecttolerance="10000"
     inkscape:snap-global="true">
    <inkscape:grid
       type="xygrid"
       id="grid821"
       color="#ff3f3f"
       opacity="0.1254902"
       units="px"
       spacingx="0.26458333"
       spacingy="0.26458333" />
  </sodipodi:namedview>
  <defs
     id="defs2" />
  <g
     inkscape:label="Layer 1"
     inkscape:groupmode="layer"
     id="layer1">
    <path
       style="font-variation-settings:normal;fill:#e3dfff;fill-opacity:1;stroke:none;stroke-width:0.0264583;stroke-linecap:round;stroke-linejoin:miter;stroke-miterlimit:4;stroke-dasharray:none;stroke-dashoffset:0;stroke-opacity:1;stop-color:#000000"
       d="m 21.695833,5.304876 h 8.46667 v 8.453457 h -8.46667 z"
       id="path875-6"
       inkscape:export-filename="/home/timk/Projects/deployables.timkoop.com/media/icon.svg"
       inkscape:export-xdpi="384"
       inkscape:export-ydpi="384" />
    <path
       id="path1135-2"
       style="font-variation-settings:normal;vector-effect:none;fill:#000000;fill-opacity:1;stroke:none;stroke-width:0.264999;stroke-linecap:round;stroke-linejoin:miter;stroke-miterlimit:4;stroke-dasharray:none;stroke-dashoffset:0;stroke-opacity:1;-inkscape-stroke:none;stop-color:#000000"
       d="M 27.503434,5.2916667 V 7.5412405 C 27.000178,7.1261493 26.3551,6.8766892 25.651351,6.8766892 c -1.607381,0 -2.910417,1.3010065 -2.910417,2.9058784 0,1.6048714 1.303036,2.9058784 2.910417,2.9058784 v 1.056678 l 1.5875,-1.585023 -1.5875,-1.585022 v 1.056678 c -1.058341,0 -1.822508,-0.792651 -1.837098,-1.8435183 -0.01479,-1.0625096 0.778669,-1.8550109 1.83193,-1.8584755 1.047581,-0.003 1.857251,0.6856184 1.857251,1.8528044 h -1.058333 l 1.5875,1.5850224 1.5875,-1.5850224 H 28.561767 V 5.2916667 Z"
       sodipodi:nodetypes="ccsscccccccccccccc" />
    <ellipse
       style="fill:#000000;fill-opacity:1;stroke:none;stroke-width:0.0264583;stroke-linecap:round;stroke-miterlimit:4;stroke-dasharray:none;stroke-opacity:1"
       id="path2990-5-1"
       cx="28.166939"
       cy="12.300927"
       rx="0.92604166"
       ry="0.92459649" />
    <path
       id="path1135-2-7"
       style="font-variation-settings:normal;vector-effect:none;fill:#000000;fill-opacity:1;stroke:none;stroke-width:0.264999;stroke-linecap:round;stroke-linejoin:miter;stroke-miterlimit:4;stroke-dasharray:none;stroke-dashoffset:0;stroke-opacity:1;-inkscape-stroke:none;stop-color:#000000"
       d="m 20.812409,26.497882 v 4.36976 c -0.503256,-0.41574 -1.148334,-0.66559 -1.852083,-0.66559 -1.607381,0 -2.910416,1.30304 -2.910416,2.91042 0,1.60738 1.303035,2.91041 2.910416,2.91041 v 1.05834 l 1.5875,-1.5875 -1.5875,-1.5875 v 1.05833 c -1.058341,0 -1.822508,-0.7939 -1.837097,-1.8464 -0.01479,-1.06417 0.778669,-1.85791 1.83193,-1.86138 1.04758,-0.003 1.85725,0.68669 1.85725,1.8557 h -1.058333 l 1.5875,1.5875 1.5875,-1.5875 h -1.058333 v -6.61459 z"
       sodipodi:nodetypes="ccsscccccccccccccc"
       inkscape:export-filename="/home/timk/Projects/deployable.timkoop.com/media/full_logo.png"
       inkscape:export-xdpi="600"
       inkscape:export-ydpi="600" />
    <path
       id="path2990-5-1-0"
       style="stroke-width:0.0264583;stroke-linecap:round"
       d="m 22.401957,35.634742 a 0.92604166,0.92604166 0 0 1 -0.926041,0.92604 0.92604166,0.92604166 0 0 1 -0.926042,-0.92604 0.92604166,0.92604166 0 0 1 0.926042,-0.92604 0.92604166,0.92604166 0 0 1 0.926041,0.92604 z"
       inkscape:export-filename="/home/timk/Projects/deployable.timkoop.com/media/full_logo.png"
       inkscape:export-xdpi="600"
       inkscape:export-ydpi="600" />
    <path
       id="path1135-2-7-3"
       style="font-variation-settings:normal;vector-effect:none;fill:#000000;fill-opacity:1;stroke:none;stroke-width:0.264999;stroke-linecap:round;stroke-linejoin:miter;stroke-miterlimit:4;stroke-dasharray:none;stroke-dashoffset:0;stroke-opacity:1;-inkscape-stroke:none;stop-color:#000000"
       d="m 12.345742,5.331215 v 4.36976 c -0.503256,-0.41574 -1.148334,-0.66559 -1.852083,-0.66559 -1.6073806,0 -2.9104156,1.30304 -2.9104156,2.91042 0,1.60738 1.303035,2.91041 2.9104156,2.91041 v 1.05834 l 1.5875,-1.5875 -1.5875,-1.5875 v 1.05833 c -1.0583406,0 -1.8225076,-0.7939 -1.8370966,-1.8464 -0.01479,-1.06417 0.778669,-1.85791 1.8319296,-1.86138 1.04758,-0.003 1.85725,0.68669 1.85725,1.8557 h -1.058333 l 1.5875,1.5875 1.5875,-1.5875 h -1.058333 v -6.61459 z"
       sodipodi:nodetypes="ccsscccccccccccccc"
       inkscape:export-filename="/home/timk/Projects/deployable.timkoop.com/media/full_logo.png"
       inkscape:export-xdpi="600"
       inkscape:export-ydpi="600" />
    <path
       id="path2990-5-1-0-6"
       style="stroke-width:0.0264583;stroke-linecap:round"
       d="m 13.93529,14.468075 a 0.92604166,0.92604166 0 0 1 -0.926041,0.92604 0.92604166,0.92604166 0 0 1 -0.926042,-0.92604 0.92604166,0.92604166 0 0 1 0.926042,-0.92604 0.92604166,0.92604166 0 0 1 0.926041,0.92604 z"
       inkscape:export-filename="/home/timk/Projects/deployable.timkoop.com/media/full_logo.png"
       inkscape:export-xdpi="600"
       inkscape:export-ydpi="600" />
    <g
       aria-label="eployable"
       transform="matrix(0.26458333,0,0,0.26458333,15.098927,-240.88973)"
       id="text3413"
       style="font-size:17.3333px;line-height:1.25;font-family:Kavivanar;-inkscape-font-specification:Kavivanar;letter-spacing:-1px;baseline-shift:baseline;opacity:1;vector-effect:none;stroke-width:0.999999;stop-color:#000000;stop-opacity:1"
       inkscape:export-filename="/home/timk/Projects/deployable.timkoop.com/media/full_logo.png"
       inkscape:export-xdpi="600"
       inkscape:export-ydpi="600">
      <path
         d="m 39.053314,1042.9907 q 0,0.5373 -0.06933,0.9706 h -7.29732 q 0.08667,1.144 0.849332,1.8374 0.762665,0.6933 1.871996,0.6933 1.594664,0 2.253329,-1.3347 h 2.131996 q -0.433332,1.3174 -1.57733,2.1667 -1.126664,0.832 -2.807995,0.832 -1.36933,0 -2.461328,-0.6067 -1.074665,-0.624 -1.698663,-1.7333 -0.606666,-1.1267 -0.606666,-2.6 0,-1.4733 0.589332,-2.5827 0.606666,-1.1266 1.68133,-1.7333 1.091998,-0.6066 2.495995,-0.6066 1.351998,0 2.409329,0.5893 1.057331,0.5893 1.646664,1.664 0.589332,1.0573 0.589332,2.444 z m -2.062663,-0.624 q -0.01733,-1.092 -0.779998,-1.7507 -0.762666,-0.6587 -1.88933,-0.6587 -1.022665,0 -1.750663,0.6587 -0.727999,0.6413 -0.866665,1.7507 z"
         style="font-family:Poppins;-inkscape-font-specification:Poppins"
         id="path24646" />
      <path
         d="m 41.970617,1039.8533 q 0.502665,-0.6586 1.36933,-1.1093 0.866665,-0.4506 1.958663,-0.4506 1.247998,0 2.270662,0.624 1.039998,0.6066 1.629331,1.7159 0.589332,1.1094 0.589332,2.548 0,1.4387 -0.589332,2.5827 -0.589333,1.1267 -1.629331,1.768 -1.022664,0.624 -2.270662,0.624 -1.091998,0 -1.941329,-0.4333 -0.849332,-0.4507 -1.386664,-1.1094 v 5.928 H 39.99462 v -14.0919 h 1.975997 z m 5.806655,3.328 q 0,-0.988 -0.415999,-1.6986 -0.398666,-0.728 -1.074665,-1.092 -0.658665,-0.3814 -1.42133,-0.3814 -0.745332,0 -1.421331,0.3814 -0.658665,0.3813 -1.074664,1.1093 -0.398666,0.728 -0.398666,1.716 0,0.988 0.398666,1.7333 0.415999,0.728 1.074664,1.1094 0.675999,0.3813 1.421331,0.3813 0.762665,0 1.42133,-0.3813 0.675999,-0.3987 1.074665,-1.144 0.415999,-0.7454 0.415999,-1.7334 z"
         style="font-family:Poppins;-inkscape-font-specification:Poppins"
         id="path24648" />
      <path
         d="M 52.722584,1035.1734 V 1048 h -1.975996 v -12.8266 z"
         style="font-family:Poppins;-inkscape-font-specification:Poppins"
         id="path24650" />
      <path
         d="m 58.465237,1048.156 q -1.351997,0 -2.443995,-0.6067 -1.091998,-0.624 -1.715997,-1.7333 -0.623999,-1.1267 -0.623999,-2.6 0,-1.456 0.641333,-2.5827 0.641332,-1.1266 1.750663,-1.7333 1.109331,-0.6066 2.478662,-0.6066 1.36933,0 2.478662,0.6066 1.109331,0.6067 1.750663,1.7333 0.641332,1.1267 0.641332,2.5827 0,1.456 -0.658666,2.5827 -0.658665,1.1266 -1.802663,1.7506 -1.126664,0.6067 -2.495995,0.6067 z m 0,-1.716 q 0.762665,0 1.421331,-0.364 0.675998,-0.364 1.091998,-1.092 0.415999,-0.728 0.415999,-1.768 0,-1.04 -0.398666,-1.7507 -0.398666,-0.728 -1.057331,-1.092 -0.658666,-0.364 -1.421331,-0.364 -0.762665,0 -1.42133,0.364 -0.641333,0.364 -1.022665,1.092 -0.381333,0.7107 -0.381333,1.7507 0,1.5427 0.779999,2.392 0.797332,0.832 1.993329,0.832 z"
         style="font-family:Poppins;-inkscape-font-specification:Poppins"
         id="path24652" />
      <path
         d="m 72.978518,1038.4494 -5.858656,14.0399 h -2.045329 l 1.941329,-4.6453 -3.761326,-9.3946 h 2.20133 l 2.686661,7.2799 2.790661,-7.2799 z"
         style="font-family:Poppins;-inkscape-font-specification:Poppins"
         id="path24654" />
      <path
         d="m 72.810495,1043.1813 q 0,-1.4386 0.589332,-2.548 0.606666,-1.1093 1.62933,-1.7159 1.039998,-0.624 2.287996,-0.624 1.126664,0 1.958663,0.4506 0.849331,0.4334 1.351997,1.092 v -1.3866 h 1.993329 V 1048 h -1.993329 v -1.4213 q -0.502666,0.676 -1.369331,1.1266 -0.866665,0.4507 -1.975996,0.4507 -1.230664,0 -2.253329,-0.624 -1.022664,-0.6413 -1.62933,-1.768 -0.589332,-1.144 -0.589332,-2.5827 z m 7.817318,0.035 q 0,-0.988 -0.415999,-1.716 -0.398666,-0.728 -1.057331,-1.1093 -0.658666,-0.3814 -1.421331,-0.3814 -0.762665,0 -1.421331,0.3814 -0.658665,0.364 -1.074664,1.092 -0.398666,0.7106 -0.398666,1.6986 0,0.988 0.398666,1.7334 0.415999,0.7453 1.074664,1.144 0.675999,0.3813 1.421331,0.3813 0.762665,0 1.421331,-0.3813 0.658665,-0.3814 1.057331,-1.1094 0.415999,-0.7453 0.415999,-1.7333 z"
         style="font-family:Poppins;-inkscape-font-specification:Poppins"
         id="path24656" />
      <path
         d="m 86.197125,1039.8707 q 0.502665,-0.6933 1.36933,-1.1267 0.883999,-0.4506 1.958663,-0.4506 1.265331,0 2.287996,0.6066 1.022665,0.6067 1.611997,1.7333 0.589332,1.1094 0.589332,2.548 0,1.4387 -0.589332,2.5827 -0.589332,1.1267 -1.62933,1.768 -1.022665,0.624 -2.270663,0.624 -1.109331,0 -1.975996,-0.4333 -0.849332,-0.4334 -1.351997,-1.1094 V 1048 h -1.975996 v -12.8266 h 1.975996 z m 5.806655,3.3106 q 0,-0.988 -0.415999,-1.6986 -0.398666,-0.728 -1.074665,-1.092 -0.658665,-0.3814 -1.42133,-0.3814 -0.745332,0 -1.421331,0.3814 -0.658665,0.3813 -1.074664,1.1093 -0.398666,0.728 -0.398666,1.716 0,0.988 0.398666,1.7333 0.415999,0.728 1.074664,1.1094 0.675999,0.3813 1.421331,0.3813 0.762665,0 1.42133,-0.3813 0.675999,-0.3987 1.074665,-1.144 0.415999,-0.7454 0.415999,-1.7334 z"
         style="font-family:Poppins;-inkscape-font-specification:Poppins"
         id="path24658" />
      <path
         d="M 96.949089,1035.1734 V 1048 h -1.975996 v -12.8266 z"
         style="font-family:Poppins;-inkscape-font-specification:Poppins"
         id="path24660" />
      <path
         d="m 107.30241,1042.9907 q 0,0.5373 -0.0693,0.9706 h -7.297316 q 0.08667,1.144 0.849336,1.8374 0.76266,0.6933 1.87199,0.6933 1.59467,0 2.25333,-1.3347 h 2.132 q -0.43334,1.3174 -1.57733,2.1667 -1.12667,0.832 -2.808,0.832 -1.36933,0 -2.46133,-0.6067 -1.074662,-0.624 -1.69866,-1.7333 -0.606666,-1.1267 -0.606666,-2.6 0,-1.4733 0.589332,-2.5827 0.606666,-1.1266 1.681334,-1.7333 1.09199,-0.6066 2.49599,-0.6066 1.352,0 2.40933,0.5893 1.05733,0.5893 1.64666,1.664 0.58934,1.0573 0.58934,2.444 z m -2.06267,-0.624 q -0.0173,-1.092 -0.78,-1.7507 -0.76266,-0.6587 -1.88932,-0.6587 -1.02267,0 -1.75067,0.6587 -0.728,0.6413 -0.866663,1.7507 z"
         style="font-family:Poppins;-inkscape-font-specification:Poppins"
         id="path24662" />
    </g>
  </g>
</svg>
