<svg width="103.7" height="41.94" version="1.1" viewBox="0 0 27.44 11.1" xmlns="http://www.w3.org/2000/svg">
<g transform="translate(-16.05 -26.5)">
<path d="m21.7 5.305h8.467v8.453h-8.467z" fill="#e3dfff" stop-color="#000000" style="font-variation-settings:normal"/>
<g>
<path d="m27.5 5.292v2.25c-0.5033-0.4151-1.148-0.6646-1.852-0.6646-1.607 0-2.91 1.301-2.91 2.906 0 1.605 1.303 2.906 2.91 2.906v1.057l1.588-1.585-1.588-1.585v1.057c-1.058 0-1.823-0.7927-1.837-1.844-0.01479-1.063 0.7787-1.855 1.832-1.858 1.048-3e-3 1.857 0.6856 1.857 1.853h-1.058l1.588 1.585 1.588-1.585h-1.058v-4.491z" stop-color="#000000" style="-inkscape-stroke:none;font-variation-settings:normal"/>
<ellipse cx="28.17" cy="12.3" rx=".926" ry=".9246"/>
<path d="m20.81 26.5v4.37c-0.5033-0.4157-1.148-0.6656-1.852-0.6656-1.607 0-2.91 1.303-2.91 2.91s1.303 2.91 2.91 2.91v1.058l1.588-1.588-1.588-1.588v1.058c-1.058 0-1.823-0.7939-1.837-1.846-0.01479-1.064 0.7787-1.858 1.832-1.861 1.048-3e-3 1.857 0.6867 1.857 1.856h-1.058l1.588 1.588 1.588-1.588h-1.058v-6.615z" stop-color="#000000" style="-inkscape-stroke:none;font-variation-settings:normal"/>
</g>
<path d="m22.4 35.63a0.926 0.926 0 0 1-0.926 0.926 0.926 0.926 0 0 1-0.926-0.926 0.926 0.926 0 0 1 0.926-0.926 0.926 0.926 0 0 1 0.926 0.926z" stroke-linecap="round" stroke-width=".02646"/>
<path d="m12.35 5.331v4.37c-0.5033-0.4157-1.148-0.6656-1.852-0.6656-1.607 0-2.91 1.303-2.91 2.91s1.303 2.91 2.91 2.91v1.058l1.588-1.588-1.588-1.588v1.058c-1.058 0-1.823-0.7939-1.837-1.846-0.01479-1.064 0.7787-1.858 1.832-1.861 1.048-3e-3 1.857 0.6867 1.857 1.856h-1.058l1.588 1.588 1.588-1.588h-1.058v-6.615z" stop-color="#000000" style="-inkscape-stroke:none;font-variation-settings:normal"/>
<path d="m13.94 14.47a0.926 0.926 0 0 1-0.926 0.926 0.926 0.926 0 0 1-0.926-0.926 0.926 0.926 0 0 1 0.926-0.926 0.926 0.926 0 0 1 0.926 0.926z" stroke-linecap="round" stroke-width=".02646"/>
<g transform="matrix(.2646 0 0 .2646 15.1 -240.9)" stop-color="#000000" aria-label="eployable">
<path d="m39.05 1043q0 0.5373-0.06933 0.9706h-7.297q0.08667 1.144 0.8493 1.837 0.7627 0.6933 1.872 0.6933 1.595 0 2.253-1.335h2.132q-0.4333 1.317-1.577 2.167-1.127 0.832-2.808 0.832-1.369 0-2.461-0.6067-1.075-0.624-1.699-1.733-0.6067-1.127-0.6067-2.6t0.5893-2.583q0.6067-1.127 1.681-1.733 1.092-0.6066 2.496-0.6066 1.352 0 2.409 0.5893t1.647 1.664q0.5893 1.057 0.5893 2.444zm-2.063-0.624q-0.01733-1.092-0.78-1.751-0.7627-0.6587-1.889-0.6587-1.023 0-1.751 0.6587-0.728 0.6413-0.8667 1.751z"/>
<path d="m41.97 1040q0.5027-0.6586 1.369-1.109 0.8667-0.4506 1.959-0.4506 1.248 0 2.271 0.624 1.04 0.6066 1.629 1.716 0.5893 1.109 0.5893 2.548 0 1.439-0.5893 2.583-0.5893 1.127-1.629 1.768-1.023 0.624-2.271 0.624-1.092 0-1.941-0.4333-0.8493-0.4507-1.387-1.109v5.928h-1.976v-14.09h1.976zm5.807 3.328q0-0.988-0.416-1.699-0.3987-0.728-1.075-1.092-0.6587-0.3814-1.421-0.3814-0.7453 0-1.421 0.3814-0.6587 0.3813-1.075 1.109-0.3987 0.728-0.3987 1.716t0.3987 1.733q0.416 0.728 1.075 1.109 0.676 0.3813 1.421 0.3813 0.7627 0 1.421-0.3813 0.676-0.3987 1.075-1.144 0.416-0.7454 0.416-1.733z"/>
<path d="m52.72 1035v12.83h-1.976v-12.83z"/>
<path d="m58.47 1048q-1.352 0-2.444-0.6067-1.092-0.624-1.716-1.733-0.624-1.127-0.624-2.6 0-1.456 0.6413-2.583 0.6413-1.127 1.751-1.733 1.109-0.6066 2.479-0.6066 1.369 0 2.479 0.6066 1.109 0.6067 1.751 1.733 0.6413 1.127 0.6413 2.583t-0.6587 2.583q-0.6587 1.127-1.803 1.751-1.127 0.6067-2.496 0.6067zm0-1.716q0.7627 0 1.421-0.364 0.676-0.364 1.092-1.092 0.416-0.728 0.416-1.768t-0.3987-1.751q-0.3987-0.728-1.057-1.092-0.6587-0.364-1.421-0.364t-1.421 0.364q-0.6413 0.364-1.023 1.092-0.3813 0.7107-0.3813 1.751 0 1.543 0.78 2.392 0.7973 0.832 1.993 0.832z"/>
<path d="m72.98 1038-5.859 14.04h-2.045l1.941-4.645-3.761-9.395h2.201l2.687 7.28 2.791-7.28z"/>
<path d="m72.81 1043q0-1.439 0.5893-2.548 0.6067-1.109 1.629-1.716 1.04-0.624 2.288-0.624 1.127 0 1.959 0.4506 0.8493 0.4334 1.352 1.092v-1.387h1.993v9.551h-1.993v-1.421q-0.5027 0.676-1.369 1.127-0.8667 0.4507-1.976 0.4507-1.231 0-2.253-0.624-1.023-0.6413-1.629-1.768-0.5893-1.144-0.5893-2.583zm7.817 0.035q0-0.988-0.416-1.716-0.3987-0.728-1.057-1.109-0.6587-0.3814-1.421-0.3814t-1.421 0.3814q-0.6587 0.364-1.075 1.092-0.3987 0.7106-0.3987 1.699t0.3987 1.733q0.416 0.7453 1.075 1.144 0.676 0.3813 1.421 0.3813 0.7627 0 1.421-0.3813 0.6587-0.3814 1.057-1.109 0.416-0.7453 0.416-1.733z"/>
<path d="m86.2 1040q0.5027-0.6933 1.369-1.127 0.884-0.4506 1.959-0.4506 1.265 0 2.288 0.6066 1.023 0.6067 1.612 1.733 0.5893 1.109 0.5893 2.548 0 1.439-0.5893 2.583-0.5893 1.127-1.629 1.768-1.023 0.624-2.271 0.624-1.109 0-1.976-0.4333-0.8493-0.4334-1.352-1.109v1.387h-1.976v-12.83h1.976zm5.807 3.311q0-0.988-0.416-1.699-0.3987-0.728-1.075-1.092-0.6587-0.3814-1.421-0.3814-0.7453 0-1.421 0.3814-0.6587 0.3813-1.075 1.109-0.3987 0.728-0.3987 1.716t0.3987 1.733q0.416 0.728 1.075 1.109 0.676 0.3813 1.421 0.3813 0.7627 0 1.421-0.3813 0.676-0.3987 1.075-1.144 0.416-0.7454 0.416-1.733z"/>
<path d="m96.95 1035v12.83h-1.976v-12.83z"/>
<path d="m107.3 1043q0 0.5373-0.0693 0.9706h-7.297q0.08667 1.144 0.8493 1.837 0.7627 0.6933 1.872 0.6933 1.595 0 2.253-1.335h2.132q-0.4333 1.317-1.577 2.167-1.127 0.832-2.808 0.832-1.369 0-2.461-0.6067-1.075-0.624-1.699-1.733-0.6067-1.127-0.6067-2.6t0.5893-2.583q0.6067-1.127 1.681-1.733 1.092-0.6066 2.496-0.6066 1.352 0 2.409 0.5893t1.647 1.664q0.5893 1.057 0.5893 2.444zm-2.063-0.624q-0.0173-1.092-0.78-1.751-0.7627-0.6587-1.889-0.6587-1.023 0-1.751 0.6587-0.728 0.6413-0.8667 1.751z"/>
</g>
</g>
</svg>
